<?xml version="1.0" encoding="utf-8"?>
<style type="text/css">
	.st0{fill:#333333;}
</style>
<!-- Generator: Adobe Illustrator 24.1.1, SVG Export Plug-In . SVG Version: 6.00 Build 0)  -->
<svg version="1.1" id="Layer_1" xmlns="http://www.w3.org/2000/svg" xmlns:xlink="http://www.w3.org/1999/xlink" x="0px" y="0px"
	 viewBox="0 0 512 512" style="enable-background:new 0 0 512 512;" xml:space="preserve">
<g id="XMLID_2_">
	<path id="XMLID_4_" class="st0" d="M512,412.4c0,11.2-3.7,21.4-12.1,28.9l-58.6,58.6c-8.4,8.4-17.7,12.1-28.9,12.1
		c-11.2,0-21.4-3.7-28.9-12.1L256,373.3L129.4,499.9c-8.4,8.4-17.7,12.1-28.9,12.1c-11.2,0-21.4-3.7-28.9-12.1L13,441.3
		c-8.4-8.4-12.1-17.7-12.1-28.9c0-11.2,3.7-21.4,12.1-28.9L138.7,256L12.1,129.4C3.7,121,0,111.7,0,100.5c0-11.2,3.7-21.4,12.1-28.9
		L70.7,13C79.1,4.7,88.4,0.9,99.6,0.9c11.2,0,21.4,3.7,28.9,12.1L256,138.7L382.6,12.1C391,3.7,400.3,0,411.5,0
		c11.2,0,21.4,3.7,28.9,12.1L499,70.7c8.4,8.4,12.1,17.7,12.1,28.9c0,11.2-3.7,21.4-12.1,28.9L373.3,256l126.6,126.6
		C508.3,391,512,400.3,512,412.4z"/>
</g>
</svg>
